<?xml version="1.0" encoding="UTF-8" standalone="no"?>
<svg xmlns="http://www.w3.org/2000/svg" version="1.0" width="570" height="560">
<path d="M0,0h570v560H0z" fill="#080"/>
<path d="M0,60h871M0,210h871M0,360h871M0,510h871" fill="none" stroke="#fff" stroke-width="2"/>

<g transform="translate(60,0)">
<path d="M300,30h50m370,0h50m-470,60h50m370,0h50m-470,30h50m370,0h50m-470,30h50m370,0h50m-470,30h50m370,0h50m-470,60h50m370,0h50m-470,30h50m370,0h50m-470,30h50m370,0h50m-470,30h50m370,0h50m-470,60h50m370,0h50m-470,30h50m370,0h50m-470,30h50m370,0h50m-470,30h50m370,0h50m-470,60h50m370,0h50" fill="none" stroke="#fff" stroke-width="2"/>

<path d="M95,500v-300h100l-10-10l10,10l-10,10 M95,200l71,71v-14v14h-14 M95,200l71-71v14v-14h-14 M95,200l-71-71v14v-14h14 M95,200l-71,71v-14v14h14 M95,200v-100l-10,10l10-10l10,10 M95,200h-100l10-10l-10,10l10,10 M95,410h-100l10-10l-10,10l10,10 M95,420l71-71h-14h14v14" fill="none" stroke="#800" stroke-width="3" stroke-linecap="round" stroke-linejoin="round"/>

<g fill="#fff" stroke="#000" stroke-width="1">
<circle cx="95" cy="530" r="23"/>
<circle cx="435" cy="530" r="23"/>
</g>

<text font-size="24px" font-family="Arial" font-weight="bold" text-align="center" text-anchor="middle">
<tspan x="98" y="538">WR</tspan>
<tspan x="435" y="538">QB</tspan>
</text>

<text font-size="18px" font-family="Arial" font-weight="bold" text-align="center" text-anchor="middle">
<tspan x="48" y="430">1-Flat</tspan>
<tspan x="208" y="350">2-Slant</tspan>
<tspan x="18" y="290">3-Comeback</tspan>
<tspan x="188" y="290">4-Curl</tspan>
<tspan x="-20" y="185">5-Out</tspan>
<tspan x="218" y="185">6-Drag</tspan>
<tspan x="-12" y="130">7-Corner</tspan>
<tspan x="170" y="120">8-Post</tspan>
<tspan x="98" y="90">9-Fly</tspan>
</text>
</g>

<g transform="scale(.1) translate(4700 4850)">
<path fill="#80561b" d="M220.21812 0.57398c97.219-6.261 201.144 38.968 255.304 122.529 19.273 29.735-43.39 78.156-63.825 93.52-42.576 32.007-94.626 50.303-147.614 54.14-96.037 6.955-211.921-37.652-261.591-125.506-16.446-29.089 53.148-79.429 72.953-93.819 42.375-30.791 92.648-47.507 144.773-50.864"/>
<path d="M126,136h228 M141,118v36 M190,118v37 M240,118v37 M290,118v37 M340,118v37" fill="none" stroke="#fff" stroke-width="8"/>
</g>

</svg>